<svg width="32" height="32" viewBox="0 0 32 32" fill="none" xmlns="http://www.w3.org/2000/svg">
<path d="M26.6667 18.6667H5.33332V10.6667H9.33332V13.3333H12V10.6667H20V13.3333H22.6667V10.6667H26.6667M26.6667 25.3333H5.33332V22.6667H26.6667M12 5.33333H20V8H12M26.6667 8H22.6667V5.33333C22.6667 3.85333 21.48 2.66666 20 2.66666H12C10.52 2.66666 9.33332 3.85333 9.33332 5.33333V8H5.33332C3.85332 8 2.66666 9.18666 2.66666 10.6667V25.3333C2.66666 26.8133 3.85332 28 5.33332 28H26.6667C28.1467 28 29.3333 26.8133 29.3333 25.3333V10.6667C29.3333 9.18666 28.1467 8 26.6667 8Z" fill="black"/>
</svg>
