<svg width="32" height="32" viewBox="0 0 32 32" fill="none" xmlns="http://www.w3.org/2000/svg">
<path d="M16.2667 11.2C18.8107 23.376 13.0667 32 13.0667 32H17.8667C20.8747 22.72 19.4667 16.144 18.6667 12.8M22.1227 8.256C22.3947 8.592 22.6667 8.944 22.8747 9.312C24.1784 11.3729 24.7842 13.7987 24.6027 16.2306C24.4212 18.6625 23.4619 20.9715 21.8667 22.816C22.5579 21.1402 22.8387 19.3236 22.6856 17.5173C22.5326 15.7111 21.9501 13.9675 20.9867 12.432C20.8587 12.224 20.7147 12.048 20.5867 11.856C19.6667 10.5719 18.4898 9.49308 17.1307 8.688C14.8268 9.42332 12.8163 10.8721 11.3898 12.8249C9.96325 14.7778 9.19452 17.1336 9.19467 19.552C9.19467 20.736 9.37067 21.872 9.69067 22.928C8.30337 20.9982 7.55884 18.6807 7.56267 16.304C7.56267 12.544 9.38667 9.216 12.1867 7.136C9.86667 6.96 7.40267 7.472 5.25867 8.8C4.26667 9.456 3.40267 10.208 2.66667 11.056C3.54667 8.928 5.06667 7.024 7.14667 5.712C9.54667 4.208 12.2667 3.712 14.8907 4.096C14.2347 3.2 13.4347 2.352 12.4747 1.6C11.5467 0.928 10.5387 0.384 9.48267 0C11.7867 0.064 14.0907 0.8 16.0587 2.288C17.0667 3.04 17.8667 3.952 18.5067 4.912C18.6667 4.912 18.8107 4.896 18.9707 4.896C24.0907 4.896 28.4267 8.272 29.8667 12.928C28.9664 11.6587 27.8141 10.5886 26.4817 9.78477C25.1492 8.9809 23.6653 8.46047 22.1227 8.256Z" fill="black"/>
</svg>
